<svg height="2492" viewBox="4 4 4884 4868" width="2500" xmlns="http://www.w3.org/2000/svg"><path d="m3184 4872h-3180v-4868h4884v4868zm-912.538-1844.752c-3.733-22.444-14.327-40.724-30.355-57.137a2285.567 2285.567 0 0 1 -84.127-90.947c-84.56-96.548-158.145-201.045-223.239-311.579-2.282-3.876-3.88-8.156-6.107-12.91 4.344-2.333 7.683-4.417 11.246-5.996 62.197-27.561 125.85-51.13 191.704-68.356 25.745-6.735 51.897-11.902 77.82-17.974 20.523-4.808 27.449-12.531 28.56-32.645 3.487-63.161 7.087-126.317 14.671-189.148 5.985-49.582 12.418-99.111 18.88-148.634 2.153-16.505 5.21-32.891 7.498-49.381 2.755-19.853-5.48-28.462-26.033-26.925-10.61.793-21.145 2.602-31.708 3.997-55.507 7.33-110.342 18.145-164.785 31.173-98.733 23.627-194.33 56.378-287.055 97.632-4.734 2.106-9.676 3.746-14.248 5.498-1.426-1.817-2.577-2.737-3.002-3.918-1.797-5.002-3.513-10.042-5.02-15.138-29.127-98.505-50.585-198.684-65.312-300.317-1.124-7.758-2.768-15.668-.653-24.353 6.144-2.618 12.16-5.294 18.259-7.763 48.793-19.756 98.321-37.527 148.57-53.143 146.83-45.632 296.779-75.23 450.266-86.209 16.6-1.187 33.198-2.45 49.814-3.346 15.12-.815 24.894-8.157 29.448-22.586 2.005-6.351 4.16-12.655 6.281-18.969 9.329-27.772 18.37-55.644 28.06-83.289 31.535-89.953 68.344-177.736 109.208-263.836 2.852-6.01 6.428-11.913 7.938-18.277 4.562-19.216-4.25-29.751-21.187-29.955-22.628-.272-45.246-1.396-67.873-1.593-11.286-.098-22.584 1.566-33.874 1.547-48.665-.084-97.222 2.6-145.684 6.401a2512.934 2512.934 0 0 0 -190.437 22.284c-82.984 12.929-165.077 29.94-246.33 51.11-122.043 31.798-240.853 72.968-356.508 123.223-72.75 31.613-143.598 67.07-213.136 105.252-19.164 10.522-27.78 25.836-28.613 46.72-.16 3.992-.12 8.002.043 11.995.756 18.618 1.9 37.226 2.34 55.85 1.91 80.676 9.845 160.81 20.492 240.752 11.001 82.6 26.487 164.354 46.198 245.26 47.986 196.97 118.814 385.375 213.047 564.967 132.572 252.662 303.569 475.79 513.338 669.203 91.811 84.652 189.715 161.582 293.602 230.857 26.604 17.74 53.733 34.702 80.85 51.654 5.512 3.446 11.851 6.476 18.172 7.536 13.374 2.243 22.157-6.724 19.965-20.057-1.175-7.141-3.827-14.111-6.394-20.94-26.965-71.714-50.916-144.43-72.27-217.994-34.94-120.364-62.627-242.367-82.32-369.596m586.631-1327.559c122.397 24.758 241.18 61.392 356.719 108.655 1.736.711 3.14 2.233 5.223 3.76-.234 5.178-.03 10.503-.778 15.69-8.657 59.985-18.905 119.696-32.583 178.757-39.57 170.86-99.96 333.971-181.838 489.146-92.069 174.489-207.464 331.929-345.15 473.055-56.35 57.759-116.256 111.682-179.345 162.034-5.206 4.155-10.404 8.35-15.293 12.864-9.507 8.78-13.316 19.656-10.875 32.485 1.244 6.537 2.63 13.05 4.088 19.545 23.956 106.667 55.054 211.276 90.917 314.497 6.99 20.118 14.05 40.245 22.096 59.95 6.117 14.98 20.444 19.354 34.533 11.657 4.654-2.542 8.873-5.888 13.248-8.93 175.472-122.036 332.232-264.627 470.516-427.617 127.336-150.085 235.031-313.134 323.453-488.913 60.266-119.808 110.332-243.796 150.253-371.827 22.8-73.122 42.186-147.158 57.853-222.162 10.893-52.15 20.328-104.527 27.842-157.286 6.482-45.507 12.026-91.086 15.632-136.905 1.985-25.213 4.791-50.393 5.772-75.645 1.552-39.93 1.99-79.906 2.676-119.867.289-16.852-7.905-29.18-21.872-37.95-3.942-2.474-8.034-4.73-12.166-6.879-37.809-19.653-75.282-39.992-113.531-58.749-138.5-67.915-282.38-121.587-431.286-161.915-75.885-20.552-152.54-37.571-230.048-50.49-43.986-7.331-88.32-12.583-132.52-18.621-15.383-2.102-27.406 3.41-35.302 17.03-2 3.451-3.606 7.13-5.409 10.697-51.733 102.35-96.57 207.66-135.409 315.541-5.864 16.288-12.025 32.488-17.244 48.983-4.869 15.386 3.587 27.728 19.657 30.128 1.974.295 3.97.472 5.963.609 51.153 3.492 102.223 7.738 153.055 14.673 46.2 6.303 92.229 13.503 141.153 24z" fill="#fff"/><path d="m2271.633 3028.932c19.522 125.545 47.209 247.548 82.148 367.912 21.355 73.564 45.306 146.28 72.271 217.994 2.567 6.829 5.22 13.799 6.394 20.94 2.192 13.333-6.591 22.3-19.965 20.057-6.32-1.06-12.66-4.09-18.172-7.536-27.117-16.952-54.246-33.914-80.85-51.654-103.887-69.275-201.79-146.205-293.602-230.857-209.77-193.412-380.766-416.541-513.338-669.203-94.233-179.592-165.06-367.997-213.047-564.967-19.71-80.906-35.197-162.66-46.198-245.26-10.647-79.941-18.582-160.076-20.492-240.751-.44-18.625-1.584-37.233-2.34-55.85-.163-3.994-.202-8.004-.043-11.997.832-20.883 9.45-36.197 28.613-46.72 69.538-38.181 140.385-73.638 213.136-105.25 115.655-50.256 234.465-91.426 356.508-123.224 81.253-21.17 163.346-38.181 246.33-51.11a2512.934 2512.934 0 0 1 190.437-22.284c48.462-3.8 97.02-6.485 145.684-6.401 11.29.02 22.588-1.645 33.874-1.547 22.627.197 45.245 1.321 67.873 1.593 16.936.204 25.749 10.739 21.187 29.955-1.51 6.364-5.086 12.268-7.938 18.277-40.864 86.1-77.673 173.883-109.208 263.836-9.69 27.645-18.731 55.517-28.06 83.29-2.12 6.313-4.276 12.617-6.28 18.968-4.555 14.429-14.33 21.77-29.449 22.586-16.616.896-33.214 2.159-49.814 3.346-153.487 10.98-303.435 40.577-450.265 86.209-50.25 15.616-99.778 33.387-148.571 53.143-6.1 2.47-12.115 5.145-18.259 7.763-2.115 8.685-.471 16.595.653 24.353 14.727 101.633 36.185 201.812 65.312 300.317 1.507 5.096 3.223 10.136 5.02 15.138.425 1.181 1.576 2.101 3.002 3.918 4.572-1.752 9.514-3.392 14.248-5.498 92.725-41.254 188.322-74.005 287.055-97.632 54.443-13.028 109.278-23.843 164.785-31.173 10.563-1.395 21.099-3.204 31.708-3.997 20.552-1.537 28.788 7.072 26.033 26.925-2.288 16.49-5.345 32.876-7.499 49.38-6.461 49.524-12.894 99.053-18.879 148.635-7.584 62.831-11.184 125.987-14.672 189.148-1.11 20.114-8.036 27.837-28.56 32.645-25.922 6.072-52.074 11.239-77.82 17.974-65.853 17.227-129.506 40.795-191.703 68.356-3.563 1.579-6.902 3.663-11.246 5.997 2.227 4.753 3.825 9.033 6.107 12.909 65.094 110.534 138.678 215.031 223.239 311.579a2285.567 2285.567 0 0 0 84.127 90.947c16.028 16.413 26.622 34.693 30.526 58.82zm584.785-1329.526c-47.25-10.214-93.279-17.414-139.478-23.717-50.832-6.935-101.902-11.18-153.055-14.673-1.992-.137-3.989-.314-5.963-.609-16.07-2.4-24.526-14.742-19.657-30.128 5.22-16.495 11.38-32.695 17.244-48.983 38.84-107.881 83.676-213.191 135.41-315.54 1.802-3.567 3.408-7.247 5.408-10.698 7.896-13.62 19.919-19.132 35.303-17.03 44.198 6.038 88.533 11.29 132.52 18.621 77.507 12.919 154.162 29.938 230.047 50.49 148.906 40.328 292.787 94 431.286 161.915 38.25 18.757 75.722 39.096 113.53 58.75 4.133 2.147 8.225 4.404 12.167 6.879 13.967 8.769 22.16 21.097 21.872 37.95-.685 39.96-1.124 79.936-2.676 119.866-.981 25.252-3.787 50.432-5.772 75.645-3.606 45.819-9.15 91.398-15.632 136.905-7.514 52.76-16.95 105.135-27.842 157.286-15.667 75.004-35.053 149.04-57.853 222.162-39.92 128.031-89.987 252.02-150.253 371.827-88.422 175.78-196.117 338.828-323.453 488.913-138.284 162.99-295.044 305.58-470.516 427.617-4.375 3.042-8.594 6.388-13.248 8.93-14.09 7.697-28.416 3.322-34.533-11.657-8.047-19.705-15.107-39.832-22.096-59.95-35.863-103.221-66.961-207.83-90.917-314.497-1.458-6.494-2.844-13.008-4.088-19.545-2.44-12.829 1.368-23.704 10.875-32.485 4.889-4.515 10.087-8.71 15.293-12.864 63.09-50.352 122.995-104.275 179.345-162.034 137.686-141.126 253.081-298.566 345.15-473.055 81.878-155.175 142.269-318.286 181.838-489.146 13.678-59.061 23.926-118.772 32.583-178.756.748-5.188.544-10.513.778-15.692-2.082-1.526-3.487-3.048-5.223-3.759-115.54-47.263-234.322-83.897-358.394-108.938z" fill="#0178ff"/></svg>